<svg xmlns="http://www.w3.org/2000/svg" xmlns:xlink="http://www.w3.org/1999/xlink" width="500" zoomAndPan="magnify" viewBox="0 0 375 374.999991" height="500" preserveAspectRatio="xMidYMid meet" version="1.0"><defs><clipPath id="1023ddfe72"><path d="M 115 21 L 340 21 L 340 323 L 115 323 Z M 115 21 " clip-rule="nonzero"/></clipPath><clipPath id="71fe235545"><path d="M 262.542969 0.0976562 L 360.242188 57.605469 L 192.210938 343.0625 L 94.511719 285.554688 Z M 262.542969 0.0976562 " clip-rule="nonzero"/></clipPath><clipPath id="53ee5b3656"><path d="M 311.390625 28.851562 C 324.347656 36.476562 333.742188 48.9375 337.511719 63.488281 C 341.28125 78.042969 339.113281 93.496094 331.488281 106.453125 L 221.035156 294.089844 C 213.410156 307.046875 200.949219 316.441406 186.398438 320.210938 C 171.84375 323.976562 156.390625 321.808594 143.433594 314.183594 C 130.480469 306.558594 121.082031 294.097656 117.316406 279.542969 C 113.546875 264.992188 115.714844 249.539062 123.339844 236.582031 L 233.789062 48.945312 C 241.414062 35.988281 253.875 26.59375 268.429688 22.824219 C 282.984375 19.058594 298.4375 21.222656 311.390625 28.851562 Z M 311.390625 28.851562 " clip-rule="nonzero"/></clipPath><clipPath id="0deea1e71f"><path d="M 0 0 L 225 0 L 225 302 L 0 302 Z M 0 0 " clip-rule="nonzero"/></clipPath><clipPath id="1bd9a3f8af"><path d="M 147.542969 -20.902344 L 245.242188 36.605469 L 77.210938 322.0625 L -20.488281 264.554688 Z M 147.542969 -20.902344 " clip-rule="nonzero"/></clipPath><clipPath id="f24a2cb93c"><path d="M 196.390625 7.851562 C 209.347656 15.476562 218.742188 27.9375 222.511719 42.488281 C 226.28125 57.042969 224.113281 72.496094 216.488281 85.453125 L 106.035156 273.089844 C 98.410156 286.046875 85.949219 295.441406 71.398438 299.210938 C 56.84375 302.976562 41.390625 300.808594 28.433594 293.183594 C 15.480469 285.558594 6.082031 273.097656 2.316406 258.542969 C -1.453125 243.992188 0.714844 228.539062 8.339844 215.582031 L 118.789062 27.945312 C 126.414062 14.988281 138.875 5.59375 153.429688 1.824219 C 167.984375 -1.941406 183.4375 0.222656 196.390625 7.851562 Z M 196.390625 7.851562 " clip-rule="nonzero"/></clipPath><clipPath id="89de80ccd1"><rect x="0" width="225" y="0" height="302"/></clipPath><clipPath id="f5db2c0f26"><path d="M 0.75 20.722656 L 117.542969 20.722656 L 117.542969 137.515625 L 0.75 137.515625 Z M 0.75 20.722656 " clip-rule="nonzero"/></clipPath><clipPath id="d4caaacd5d"><path d="M 59.148438 20.722656 C 26.894531 20.722656 0.75 46.867188 0.75 79.117188 C 0.75 111.371094 26.894531 137.515625 59.148438 137.515625 C 91.398438 137.515625 117.542969 111.371094 117.542969 79.117188 C 117.542969 46.867188 91.398438 20.722656 59.148438 20.722656 Z M 59.148438 20.722656 " clip-rule="nonzero"/></clipPath><clipPath id="9694384160"><path d="M 0.75 0.722656 L 117.542969 0.722656 L 117.542969 117.515625 L 0.75 117.515625 Z M 0.75 0.722656 " clip-rule="nonzero"/></clipPath><clipPath id="73b9f4d130"><path d="M 59.148438 0.722656 C 26.894531 0.722656 0.75 26.867188 0.75 59.117188 C 0.75 91.371094 26.894531 117.515625 59.148438 117.515625 C 91.398438 117.515625 117.542969 91.371094 117.542969 59.117188 C 117.542969 26.867188 91.398438 0.722656 59.148438 0.722656 Z M 59.148438 0.722656 " clip-rule="nonzero"/></clipPath><clipPath id="14046a6df8"><rect x="0" width="118" y="0" height="118"/></clipPath><clipPath id="7879177137"><rect x="0" width="361" y="0" height="344"/></clipPath></defs><g transform="matrix(1, 0, 0, 1, 7, 16)"><g clip-path="url(#7879177137)"><g clip-path="url(#1023ddfe72)"><g clip-path="url(#71fe235545)"><g clip-path="url(#53ee5b3656)"><g transform="matrix(1, 0, 0, 1, 115, 21)"><g clip-path="url(#89de80ccd1)"><g clip-path="url(#0deea1e71f)"><g clip-path="url(#1bd9a3f8af)"><g clip-path="url(#f24a2cb93c)"><path fill="#004aad" d="M 147.542969 -20.902344 L 245.242188 36.605469 L 77.210938 322.0625 L -20.488281 264.554688 Z M 147.542969 -20.902344 " fill-opacity="1" fill-rule="nonzero"/></g></g></g></g></g></g></g></g><g clip-path="url(#f5db2c0f26)"><g clip-path="url(#d4caaacd5d)"><g transform="matrix(1, 0, 0, 1, -0.000000000000000888, 20)"><g clip-path="url(#14046a6df8)"><g clip-path="url(#9694384160)"><g clip-path="url(#73b9f4d130)"><path fill="#004aad" d="M 0.75 0.722656 L 117.542969 0.722656 L 117.542969 117.515625 L 0.75 117.515625 Z M 0.75 0.722656 " fill-opacity="1" fill-rule="nonzero"/></g></g></g></g></g></g></g></g></svg>